<?xml version="1.0" encoding="utf-8"?>
<svg xmlns="http://www.w3.org/2000/svg" xmlns:xlink="http://www.w3.org/1999/xlink" style="margin: auto; background: none; display: block; shape-rendering: auto;" width="184px" height="184px" viewBox="0 0 100 100" preserveAspectRatio="xMidYMid">
<g transform="rotate(0 50 50)">
  <rect x="48.5" y="33" rx="0.96" ry="0.96" width="3" height="12" fill="#2ccd16">
    <animate attributeName="opacity" values="1;0" keyTimes="0;1" dur="1.6393442622950818s" begin="-1.4754098360655734s" repeatCount="indefinite"></animate>
  </rect>
</g><g transform="rotate(36 50 50)">
  <rect x="48.5" y="33" rx="0.96" ry="0.96" width="3" height="12" fill="#2ccd16">
    <animate attributeName="opacity" values="1;0" keyTimes="0;1" dur="1.6393442622950818s" begin="-1.3114754098360653s" repeatCount="indefinite"></animate>
  </rect>
</g><g transform="rotate(72 50 50)">
  <rect x="48.5" y="33" rx="0.96" ry="0.96" width="3" height="12" fill="#2ccd16">
    <animate attributeName="opacity" values="1;0" keyTimes="0;1" dur="1.6393442622950818s" begin="-1.147540983606557s" repeatCount="indefinite"></animate>
  </rect>
</g><g transform="rotate(108 50 50)">
  <rect x="48.5" y="33" rx="0.96" ry="0.96" width="3" height="12" fill="#2ccd16">
    <animate attributeName="opacity" values="1;0" keyTimes="0;1" dur="1.6393442622950818s" begin="-0.9836065573770489s" repeatCount="indefinite"></animate>
  </rect>
</g><g transform="rotate(144 50 50)">
  <rect x="48.5" y="33" rx="0.96" ry="0.96" width="3" height="12" fill="#2ccd16">
    <animate attributeName="opacity" values="1;0" keyTimes="0;1" dur="1.6393442622950818s" begin="-0.8196721311475408s" repeatCount="indefinite"></animate>
  </rect>
</g><g transform="rotate(180 50 50)">
  <rect x="48.5" y="33" rx="0.96" ry="0.96" width="3" height="12" fill="#2ccd16">
    <animate attributeName="opacity" values="1;0" keyTimes="0;1" dur="1.6393442622950818s" begin="-0.6557377049180326s" repeatCount="indefinite"></animate>
  </rect>
</g><g transform="rotate(216 50 50)">
  <rect x="48.5" y="33" rx="0.96" ry="0.96" width="3" height="12" fill="#2ccd16">
    <animate attributeName="opacity" values="1;0" keyTimes="0;1" dur="1.6393442622950818s" begin="-0.49180327868852447s" repeatCount="indefinite"></animate>
  </rect>
</g><g transform="rotate(252 50 50)">
  <rect x="48.5" y="33" rx="0.96" ry="0.96" width="3" height="12" fill="#2ccd16">
    <animate attributeName="opacity" values="1;0" keyTimes="0;1" dur="1.6393442622950818s" begin="-0.3278688524590163s" repeatCount="indefinite"></animate>
  </rect>
</g><g transform="rotate(288 50 50)">
  <rect x="48.5" y="33" rx="0.96" ry="0.96" width="3" height="12" fill="#2ccd16">
    <animate attributeName="opacity" values="1;0" keyTimes="0;1" dur="1.6393442622950818s" begin="-0.16393442622950816s" repeatCount="indefinite"></animate>
  </rect>
</g><g transform="rotate(324 50 50)">
  <rect x="48.5" y="33" rx="0.96" ry="0.96" width="3" height="12" fill="#2ccd16">
    <animate attributeName="opacity" values="1;0" keyTimes="0;1" dur="1.6393442622950818s" begin="0s" repeatCount="indefinite"></animate>
  </rect>
</g>
<!-- [ldio] generated by https://loading.io/ --></svg>