<?xml version="1.0" encoding="utf-8"?><svg xmlns="http://www.w3.org/2000/svg" xmlns:xlink="http://www.w3.org/1999/xlink" width="1440" height="889" preserveAspectRatio="xMidYMid" viewBox="0 0 1440 889" style="z-index:1;margin-right:-2px;display:block;background-repeat-y:initial;background-repeat-x:initial;background-color:rgb(241, 242, 243);animation-play-state:paused" ><g transform="" style="animation-play-state:paused" ><linearGradient id="lg-0.3734565875773326" x1="0" x2="1" y1="0" y2="0" style="animation-play-state:paused" ><stop stop-color="#d01012" offset="0" style="animation-play-state:paused" ></stop>

  
<stop stop-color="#f6ec36" offset="1" style="animation-play-state:paused" ></stop></linearGradient>
<path fill="url(#lg-0.3734565875773326)" opacity="0.4" d="M 0 0 L 0 815.203 Q 144 670.17 288 631.336 T 576 542.216 T 864 385.307 T 1152 158.085 T 1440 -5.51307 L 1440 0 Z" style="opacity:0.4;animation-play-state:paused" ></path>
<path fill="url(#lg-0.3734565875773326)" opacity="0.4" d="M 0 0 L 0 882.773 Q 144 731.519 288 696.443 T 576 580.928 T 864 422.561 T 1152 270.935 T 1440 112.372 L 1440 0 Z" style="opacity:0.4;animation-play-state:paused" ></path>
<path fill="url(#lg-0.3734565875773326)" opacity="0.4" d="M 0 0 L 0 796.678 Q 144 718.628 288 678.239 T 576 502.785 T 864 399.282 T 1152 199.807 T 1440 27.969 L 1440 0 Z" style="opacity:0.4;animation-play-state:paused" ></path></g></svg>