<?xml version="1.0" encoding="utf-8"?><svg xmlns="http://www.w3.org/2000/svg" xmlns:xlink="http://www.w3.org/1999/xlink" width="1440" height="889" preserveAspectRatio="xMidYMid" viewBox="0 0 1440 889" style="z-index:1;margin-right:-2px;display:block;background-repeat-y:initial;background-repeat-x:initial;background-color:rgb(34, 38, 41);animation-play-state:paused" ><g transform="" style="animation-play-state:paused" ><linearGradient id="lg-0.012126053275919535" x1="0" x2="1" y1="0" y2="0" style="animation-play-state:paused" ><stop stop-color="#f6ec36" offset="0" style="animation-play-state:paused" ></stop>

  
<stop stop-color="#ffffff" offset="1" style="animation-play-state:paused" ></stop></linearGradient>
<path fill="url(#lg-0.012126053275919535)" opacity="0.4" d="M 0 0 L 0 812.538 Q 120 717.665 240 700.744 T 480 436.3 T 720 361.632 T 960 162.491 T 1200 -23.0893 T 1440 -176.628 L 1440 0 Z" style="opacity:0.4;animation-play-state:paused" ></path>
<path fill="url(#lg-0.012126053275919535)" opacity="0.4" d="M 0 0 L 0 864.027 Q 120 715.498 240 683.298 T 480 511.019 T 720 366.545 T 960 148.405 T 1200 -20.4666 T 1440 -130.571 L 1440 0 Z" style="opacity:0.4;animation-play-state:paused" ></path>
<path fill="url(#lg-0.012126053275919535)" opacity="0.4" d="M 0 0 L 0 866.112 Q 120 636.931 240 617.992 T 480 537.169 T 720 352.043 T 960 218.536 T 1200 81.8999 T 1440 -95.0324 L 1440 0 Z" style="opacity:0.4;animation-play-state:paused" ></path></g></svg>